# xmcd
#
# Track frame offsets:
#	150
#	15676
#	32674
#	49848
#	67471
#	85993
#	102713
#	116955
#	132201
#	147727
#	164725
#	181903
#	199526
#	218048
#	234768
#	249010
#
# Disc length: 3523 seconds
#
# Revision: 1
# Processed by: cddbd v1.5.2PL0 Copyright (c) Steve Scherf et al.
# Submitted via: audiograbber 1.83.01
#
DISCID=ed0dc110
DTITLE=SuperHits 81 - CDGSH-081
DYEAR=1900
DGENRE=Karaoke
TTITLE0=Toby Keith - Beer For My Horses
TTITLE1=Lonestar - My Front Porch Looking In
TTITLE2=Jimmy Wayne - Stay Gone
TTITLE3=Montgomery Gentry - Speed
TTITLE4=Jeff Bates - The Love Song
TTITLE5=Brad Paisley - Celebrity
TTITLE6=Rascal Flatts - Love You Out Loud
TTITLE7=Randy Travis - Three Wooden Crosses
TTITLE8=Toby Keith - Beer For My Horses - Vocals
TTITLE9=Lonestar - My Front Porch Looking In - Vocals
TTITLE10=Jimmy Wayne - Stay Gone - Vocals
TTITLE11=Montgomery Gentry - Speed - Vocals
TTITLE12=Jeff Bates - The Love Song - Vocals
TTITLE13=Brad Paisley - Celebrity - Vocals
TTITLE14=Rascal Flatts - Love You Out Loud - Vocals
TTITLE15=Randy Travis - Three Wooden Crosses - Vocals
EXTD=
EXTT0=
EXTT1=
EXTT2=
EXTT3=
EXTT4=
EXTT5=
EXTT6=
EXTT7=
EXTT8=
EXTT9=
EXTT10=
EXTT11=
EXTT12=
EXTT13=
EXTT14=
EXTT15=
PLAYORDER=
